<?xml version="1.0" encoding="UTF-8"?>
<svg version="1.1" xmlns="http://www.w3.org/2000/svg" width="512" height="512">
<path d="M0 0 C1.02298439 -0.00503792 1.02298439 -0.00503792 2.06663513 -0.01017761 C4.31088099 -0.01964068 6.55505187 -0.02162837 8.79931641 -0.02270508 C10.36723867 -0.02592084 11.93516063 -0.02928516 13.50308228 -0.03279114 C16.78640437 -0.03877076 20.06970019 -0.04063223 23.35302734 -0.04003906 C27.54817765 -0.0399375 31.74315849 -0.05358909 35.93826866 -0.07081127 C39.176023 -0.0819613 42.41373676 -0.08395735 45.65150833 -0.08342934 C47.19757293 -0.08460495 48.74363872 -0.08900309 50.2896843 -0.0967617 C52.45756458 -0.10662268 54.62508189 -0.1036598 56.79296875 -0.09765625 C58.02365082 -0.09908127 59.25433289 -0.10050629 60.52230835 -0.10197449 C66.7067279 0.33444444 71.15705063 1.67960329 75.65087891 5.96948242 C76.50166016 6.77434082 77.35244141 7.57919922 78.22900391 8.40844727 C79.15197266 9.31159668 80.07494141 10.21474609 81.02587891 11.14526367 C81.52925781 11.63319397 82.03263672 12.12112427 82.55126953 12.62384033 C85.84543079 15.81734384 89.10759884 19.04120311 92.3515625 22.28564453 C94.04621651 23.97807458 95.74877742 25.66228987 97.45166016 27.34643555 C98.53938683 28.43123382 99.62664431 29.51650281 100.71337891 30.60229492 C101.21853027 31.10026077 101.72368164 31.59822662 102.24414062 32.11128235 C107.48503607 37.38662473 108.85636814 41.70152984 109.1394043 49.12133789 C109.13416748 50.13728027 109.12893066 51.15322266 109.12353516 52.19995117 C109.1203125 53.30854492 109.11708984 54.41713867 109.11376953 55.55932617 C109.10539062 56.70143555 109.09701172 57.84354492 109.08837891 59.02026367 C109.08386719 60.18557617 109.07935547 61.35088867 109.07470703 62.55151367 C109.06296672 65.41615012 109.0465446 68.28068 109.02587891 71.14526367 C109.81355652 71.14082245 110.60123413 71.13638123 111.41278076 71.13180542 C118.88483669 71.09150721 126.35683892 71.06116774 133.82897568 71.04163933 C137.66923459 71.03126166 141.5094027 71.01721437 145.34960938 70.99438477 C149.06492234 70.97243925 152.7801487 70.96064998 156.49552155 70.95550919 C157.90348928 70.95185195 159.31145301 70.94471205 160.71938324 70.93380356 C176.51292196 70.81645349 192.06296873 72.1847662 204.08837891 83.58276367 C213.44121906 94.16066097 216.18751287 105.81705153 216.15959167 119.69561768 C216.16185723 120.53096566 216.16412279 121.36631364 216.166457 122.2269752 C216.1727626 125.0125778 216.17196985 127.79813131 216.17114258 130.58374023 C216.17413623 132.58660444 216.17753924 134.58946806 216.18132019 136.59233093 C216.19014383 142.02430303 216.19249763 147.45625938 216.19313598 152.88823795 C216.19384746 156.28495764 216.19598366 159.68167334 216.19863319 163.07839203 C216.20788153 174.93711094 216.21196876 186.79581862 216.21118164 198.65454102 C216.21058113 209.69429223 216.22112897 220.73399454 216.2369253 231.77373338 C216.25001821 241.26356684 216.25536479 250.75338435 216.25472623 260.24322677 C216.25447174 265.90584391 216.25729596 271.56841758 216.26790428 277.2310257 C216.27761459 282.55965667 216.27764435 287.88820289 216.27038765 293.21683693 C216.26934542 295.16664314 216.2716831 297.1164547 216.27774811 299.06625175 C216.32633889 315.77681332 215.92239807 331.01695075 203.90087891 344.02026367 C192.30417721 354.74137547 178.75595977 356.46033137 163.57775879 356.39923096 C161.7683307 356.40391093 161.7683307 356.40391093 159.9223485 356.40868545 C156.60489264 356.41524084 153.28766612 356.41293815 149.97022462 356.40671301 C146.38052761 356.40216265 142.79084974 356.40918502 139.20115662 356.41467285 C132.1811163 356.42354106 125.16111888 356.42165634 118.14107692 356.41584757 C112.43300137 356.41132093 106.7249378 356.4107225 101.01686096 356.4128952 C100.20279574 356.41320167 99.38873051 356.41350813 98.54999664 356.41382389 C96.89596156 356.41446337 95.24192648 356.4151118 93.5878914 356.41576907 C78.09753863 356.42146483 62.60720957 356.41492632 47.11686069 356.40416834 C33.84091609 356.39523351 20.56500647 356.39678577 7.2890625 356.40600586 C-8.14789737 356.41672183 -23.58483649 356.42091558 -39.02179956 356.41478133 C-40.66956742 356.41414427 -42.31733528 356.41351553 -43.96510315 356.4128952 C-44.77572298 356.41258665 -45.58634281 356.4122781 -46.42152688 356.4119602 C-52.11919338 356.41023724 -57.81684666 356.41313974 -63.51451111 356.41785431 C-70.46313734 356.4234779 -77.41171842 356.4219157 -84.36033952 356.41129282 C-87.90196998 356.40605595 -91.44352529 356.4039453 -94.98515511 356.41059113 C-98.83214573 356.4177005 -102.67901474 356.40918094 -106.52600098 356.39923096 C-107.63428615 356.4036924 -108.74257133 356.40815384 -109.8844409 356.41275048 C-123.8779751 356.34275735 -136.27841771 353.79284347 -146.84912109 344.02026367 C-159.5804403 330.24918155 -159.27297628 313.82251214 -159.23291016 296.23681641 C-159.23562389 294.23173903 -159.23918697 292.22666265 -159.24353027 290.22158813 C-159.2526104 284.80229434 -159.24912828 279.38307712 -159.2427721 273.96378207 C-159.2376901 268.27899906 -159.24240959 262.59422237 -159.24554443 256.90943909 C-159.24917738 247.36604644 -159.2444023 237.82268481 -159.23486328 228.27929688 C-159.22397692 217.26102287 -159.22750836 206.24282288 -159.23851609 195.22455066 C-159.24760439 185.7465376 -159.24886679 176.26854676 -159.24363875 166.79053074 C-159.24052794 161.13751167 -159.24008531 155.48452735 -159.24671173 149.83151054 C-159.25250711 144.516775 -159.24844823 139.20213453 -159.23692322 133.88740921 C-159.23428848 131.94202011 -159.23502135 129.99662295 -159.23944855 128.05123711 C-159.27580391 110.44741056 -158.01351558 95.90582463 -145.41943359 82.48901367 C-133.33266401 71.15405272 -117.24223497 70.82862892 -101.58349609 70.94995117 C-100.14333291 70.95369204 -98.70316715 70.95653392 -97.26300049 70.95852661 C-93.51479782 70.96607874 -89.76675589 70.98565229 -86.01861572 71.00793457 C-82.17698336 71.02857697 -78.33532445 71.03756722 -74.49365234 71.04760742 C-66.9870695 71.06890826 -59.48061801 71.10293921 -51.97412109 71.14526367 C-51.98459473 70.42983398 -51.99506836 69.7144043 -52.00585938 68.97729492 C-52.04772666 65.69998767 -52.07354438 62.42273693 -52.09912109 59.14526367 C-52.11587891 58.01991211 -52.13263672 56.89456055 -52.14990234 55.73510742 C-52.24328905 39.7659806 -52.24328905 39.7659806 -47.16943359 34.47729492 C-46.54713867 33.81810059 -45.92484375 33.15890625 -45.28369141 32.47973633 C-44.5215332 31.70936035 -43.759375 30.93898438 -42.97412109 30.14526367 C-41.99806084 29.13970172 -41.02251244 28.13364278 -40.04736328 27.12719727 C-37.25724837 24.26237273 -34.44019773 21.42564273 -31.61230469 18.59814453 C-29.84068497 16.82431703 -28.07725112 15.0426051 -26.31396484 13.26049805 C-25.17773558 12.12133773 -24.04103343 10.98264886 -22.90380859 9.84448242 C-22.38285614 9.31634445 -21.86190369 8.78820648 -21.32516479 8.24406433 C-14.55704323 1.51779233 -9.37880696 0.02908664 0 0 Z M2.02587891 54.14526367 C2.02587891 59.75526367 2.02587891 65.36526367 2.02587891 71.14526367 C19.51587891 71.14526367 37.00587891 71.14526367 55.02587891 71.14526367 C55.02587891 65.53526367 55.02587891 59.92526367 55.02587891 54.14526367 C37.53587891 54.14526367 20.04587891 54.14526367 2.02587891 54.14526367 Z " fill="#3E50B2" transform="translate(227.97412109375,82.854736328125)"/>
<path d="M0 0 C1.02298439 -0.00503792 1.02298439 -0.00503792 2.06663513 -0.01017761 C4.31088099 -0.01964068 6.55505187 -0.02162837 8.79931641 -0.02270508 C10.36723867 -0.02592084 11.93516063 -0.02928516 13.50308228 -0.03279114 C16.78640437 -0.03877076 20.06970019 -0.04063223 23.35302734 -0.04003906 C27.54817765 -0.0399375 31.74315849 -0.05358909 35.93826866 -0.07081127 C39.176023 -0.0819613 42.41373676 -0.08395735 45.65150833 -0.08342934 C47.19757293 -0.08460495 48.74363872 -0.08900309 50.2896843 -0.0967617 C52.45756458 -0.10662268 54.62508189 -0.1036598 56.79296875 -0.09765625 C58.02365082 -0.09908127 59.25433289 -0.10050629 60.52230835 -0.10197449 C66.7067279 0.33444444 71.15705063 1.67960329 75.65087891 5.96948242 C76.50166016 6.77434082 77.35244141 7.57919922 78.22900391 8.40844727 C79.15197266 9.31159668 80.07494141 10.21474609 81.02587891 11.14526367 C81.52925781 11.63319397 82.03263672 12.12112427 82.55126953 12.62384033 C85.84543079 15.81734384 89.10759884 19.04120311 92.3515625 22.28564453 C94.04621651 23.97807458 95.74877742 25.66228987 97.45166016 27.34643555 C98.53938683 28.43123382 99.62664431 29.51650281 100.71337891 30.60229492 C101.21853027 31.10026077 101.72368164 31.59822662 102.24414062 32.11128235 C107.48503607 37.38662473 108.85636814 41.70152984 109.1394043 49.12133789 C109.13416748 50.13728027 109.12893066 51.15322266 109.12353516 52.19995117 C109.1203125 53.30854492 109.11708984 54.41713867 109.11376953 55.55932617 C109.10539062 56.70143555 109.09701172 57.84354492 109.08837891 59.02026367 C109.08386719 60.18557617 109.07935547 61.35088867 109.07470703 62.55151367 C109.06296672 65.41615012 109.0465446 68.28068 109.02587891 71.14526367 C109.81355652 71.14082245 110.60123413 71.13638123 111.41278076 71.13180542 C118.88483669 71.09150721 126.35683892 71.06116774 133.82897568 71.04163933 C137.66923459 71.03126166 141.5094027 71.01721437 145.34960938 70.99438477 C149.06492234 70.97243925 152.7801487 70.96064998 156.49552155 70.95550919 C157.90348928 70.95185195 159.31145301 70.94471205 160.71938324 70.93380356 C176.51292196 70.81645349 192.06296873 72.1847662 204.08837891 83.58276367 C213.44121906 94.16066097 216.18751287 105.81705153 216.15959167 119.69561768 C216.16185723 120.53096566 216.16412279 121.36631364 216.166457 122.2269752 C216.1727626 125.0125778 216.17196985 127.79813131 216.17114258 130.58374023 C216.17413623 132.58660444 216.17753924 134.58946806 216.18132019 136.59233093 C216.19014383 142.02430303 216.19249763 147.45625938 216.19313598 152.88823795 C216.19384746 156.28495764 216.19598366 159.68167334 216.19863319 163.07839203 C216.20788153 174.93711094 216.21196876 186.79581862 216.21118164 198.65454102 C216.21058113 209.69429223 216.22112897 220.73399454 216.2369253 231.77373338 C216.25001821 241.26356684 216.25536479 250.75338435 216.25472623 260.24322677 C216.25447174 265.90584391 216.25729596 271.56841758 216.26790428 277.2310257 C216.27761459 282.55965667 216.27764435 287.88820289 216.27038765 293.21683693 C216.26934542 295.16664314 216.2716831 297.1164547 216.27774811 299.06625175 C216.32633889 315.77681332 215.92239807 331.01695075 203.90087891 344.02026367 C192.30417721 354.74137547 178.75595977 356.46033137 163.57775879 356.39923096 C161.7683307 356.40391093 161.7683307 356.40391093 159.9223485 356.40868545 C156.60489264 356.41524084 153.28766612 356.41293815 149.97022462 356.40671301 C146.38052761 356.40216265 142.79084974 356.40918502 139.20115662 356.41467285 C132.1811163 356.42354106 125.16111888 356.42165634 118.14107692 356.41584757 C112.43300137 356.41132093 106.7249378 356.4107225 101.01686096 356.4128952 C100.20279574 356.41320167 99.38873051 356.41350813 98.54999664 356.41382389 C96.89596156 356.41446337 95.24192648 356.4151118 93.5878914 356.41576907 C78.09753863 356.42146483 62.60720957 356.41492632 47.11686069 356.40416834 C33.84091609 356.39523351 20.56500647 356.39678577 7.2890625 356.40600586 C-8.14789737 356.41672183 -23.58483649 356.42091558 -39.02179956 356.41478133 C-40.66956742 356.41414427 -42.31733528 356.41351553 -43.96510315 356.4128952 C-44.77572298 356.41258665 -45.58634281 356.4122781 -46.42152688 356.4119602 C-52.11919338 356.41023724 -57.81684666 356.41313974 -63.51451111 356.41785431 C-70.46313734 356.4234779 -77.41171842 356.4219157 -84.36033952 356.41129282 C-87.90196998 356.40605595 -91.44352529 356.4039453 -94.98515511 356.41059113 C-98.83214573 356.4177005 -102.67901474 356.40918094 -106.52600098 356.39923096 C-107.63428615 356.4036924 -108.74257133 356.40815384 -109.8844409 356.41275048 C-123.8779751 356.34275735 -136.27841771 353.79284347 -146.84912109 344.02026367 C-159.5804403 330.24918155 -159.27297628 313.82251214 -159.23291016 296.23681641 C-159.23562389 294.23173903 -159.23918697 292.22666265 -159.24353027 290.22158813 C-159.2526104 284.80229434 -159.24912828 279.38307712 -159.2427721 273.96378207 C-159.2376901 268.27899906 -159.24240959 262.59422237 -159.24554443 256.90943909 C-159.24917738 247.36604644 -159.2444023 237.82268481 -159.23486328 228.27929688 C-159.22397692 217.26102287 -159.22750836 206.24282288 -159.23851609 195.22455066 C-159.24760439 185.7465376 -159.24886679 176.26854676 -159.24363875 166.79053074 C-159.24052794 161.13751167 -159.24008531 155.48452735 -159.24671173 149.83151054 C-159.25250711 144.516775 -159.24844823 139.20213453 -159.23692322 133.88740921 C-159.23428848 131.94202011 -159.23502135 129.99662295 -159.23944855 128.05123711 C-159.27580391 110.44741056 -158.01351558 95.90582463 -145.41943359 82.48901367 C-133.33266401 71.15405272 -117.24223497 70.82862892 -101.58349609 70.94995117 C-100.14333291 70.95369204 -98.70316715 70.95653392 -97.26300049 70.95852661 C-93.51479782 70.96607874 -89.76675589 70.98565229 -86.01861572 71.00793457 C-82.17698336 71.02857697 -78.33532445 71.03756722 -74.49365234 71.04760742 C-66.9870695 71.06890826 -59.48061801 71.10293921 -51.97412109 71.14526367 C-51.98459473 70.42983398 -51.99506836 69.7144043 -52.00585938 68.97729492 C-52.04772666 65.69998767 -52.07354438 62.42273693 -52.09912109 59.14526367 C-52.11587891 58.01991211 -52.13263672 56.89456055 -52.14990234 55.73510742 C-52.24328905 39.7659806 -52.24328905 39.7659806 -47.16943359 34.47729492 C-46.54713867 33.81810059 -45.92484375 33.15890625 -45.28369141 32.47973633 C-44.5215332 31.70936035 -43.759375 30.93898438 -42.97412109 30.14526367 C-41.99806084 29.13970172 -41.02251244 28.13364278 -40.04736328 27.12719727 C-37.25724837 24.26237273 -34.44019773 21.42564273 -31.61230469 18.59814453 C-29.84068497 16.82431703 -28.07725112 15.0426051 -26.31396484 13.26049805 C-25.17773558 12.12133773 -24.04103343 10.98264886 -22.90380859 9.84448242 C-22.38285614 9.31634445 -21.86190369 8.78820648 -21.32516479 8.24406433 C-14.55704323 1.51779233 -9.37880696 0.02908664 0 0 Z M-38.8762207 34.00244141 C-40.97412109 37.14526367 -40.97412109 37.14526367 -42.97412109 38.14526367 C-42.97412109 50.35526367 -42.97412109 62.56526367 -42.97412109 75.14526367 C-51.35431641 75.0756543 -51.35431641 75.0756543 -59.90380859 75.00463867 C-63.45851486 74.98418301 -67.01314781 74.96492606 -70.56787109 74.94995117 C-76.20116382 74.92610688 -81.83419468 74.89800182 -87.46728516 74.84350586 C-92.01254254 74.79981269 -96.55751881 74.77607731 -101.10297012 74.7657547 C-102.83080592 74.75840522 -104.5586276 74.74405403 -106.28634262 74.72234344 C-119.58257352 74.56201715 -129.74578389 75.99238922 -139.97412109 85.14526367 C-147.56674406 93.08300587 -150.12132938 100.78518877 -150.12802124 111.5559082 C-150.13240349 112.41248866 -150.13678575 113.26906912 -150.1413008 114.15160656 C-150.15467448 117.02709867 -150.16086451 119.90256014 -150.16699219 122.77807617 C-150.17489443 124.83798867 -150.18316345 126.89789978 -150.19177246 128.95780945 C-150.21798355 135.72861409 -150.23330152 142.49942488 -150.24755859 149.27026367 C-150.25291909 151.60281376 -150.2582966 153.93536381 -150.26369095 156.26791382 C-150.28532039 165.97360193 -150.30405549 175.67928839 -150.31531334 185.38499451 C-150.33154136 199.28341941 -150.36469086 213.18156424 -150.42171419 227.07988358 C-150.46045925 236.85756557 -150.47995159 246.63517281 -150.4852339 256.41292953 C-150.48888172 262.24955515 -150.5008425 268.08588199 -150.53333664 273.92242432 C-150.56349649 279.4185674 -150.56970069 284.91423217 -150.55795288 290.41044044 C-150.5577328 292.42111815 -150.56598366 294.43181856 -150.58360672 296.44241905 C-150.70152992 310.67804759 -149.64497581 322.34589087 -139.29443359 333.16870117 C-132.69300392 338.79214126 -125.50087174 342.26232141 -116.82744503 342.27948475 C-115.25814626 342.28617151 -115.25814626 342.28617151 -113.65714449 342.29299337 C-111.93494978 342.29271682 -111.93494978 342.29271682 -110.17796326 342.29243469 C-108.34687998 342.29794972 -108.34687998 342.29794972 -106.47880512 342.30357617 C-103.08859358 342.31269612 -99.69843041 342.3173112 -96.30821121 342.31996548 C-92.65226928 342.32387184 -88.99634132 342.33345 -85.34040833 342.34217834 C-76.50991342 342.36193426 -67.67941737 342.37200824 -58.84890589 342.38090613 C-54.68871444 342.3852908 -50.52852426 342.39065718 -46.36833382 342.395895 C-32.53559222 342.41290705 -18.70285142 342.42740043 -4.87010098 342.43464375 C-1.28099504 342.43655359 2.30811089 342.43847393 5.8972168 342.44042969 C7.23527231 342.4411553 7.23527231 342.4411553 8.60035925 342.44189557 C23.04540005 342.45019292 37.49035797 342.47552494 51.93536258 342.50801037 C66.77147681 342.54110283 81.60754894 342.55909452 96.44370025 342.56228799 C104.77129661 342.56445115 113.09877213 342.57317128 121.42633247 342.59874916 C128.51971318 342.62048614 135.61294368 342.62849191 142.70635391 342.61878238 C146.32296279 342.6142462 149.93926196 342.6160836 153.55582809 342.63554382 C157.4842913 342.6564989 161.41233101 342.64616263 165.34083557 342.63301086 C166.47335033 342.64398011 167.60586508 342.65494936 168.77269846 342.666251 C179.56254904 342.57927064 189.08979333 339.68018449 197.02587891 332.14526367 C207.63921926 320.71930097 207.60859535 308.5540266 207.54345703 293.79956055 C207.54888301 291.7355144 207.55600833 289.67147213 207.56469727 287.60743713 C207.58287684 282.02272797 207.57588518 276.43831557 207.56318092 270.85360146 C207.55302547 264.99797413 207.56245367 259.14237153 207.56872559 253.28674316 C207.57599457 243.45486915 207.5664339 233.62311549 207.54736328 223.79125977 C207.52559607 212.43835985 207.53264797 201.08574732 207.5546689 189.73285437 C207.5728442 179.97034423 207.57537079 170.2079204 207.56491423 160.44539881 C207.55869104 154.62130176 207.55781139 148.79733962 207.57106018 142.97325134 C207.58264899 137.49673505 207.57453739 132.02058784 207.55148315 126.54411125 C207.54621227 124.539063 207.54768194 122.53398347 207.55653381 120.52894783 C207.81099506 106.32284865 207.81099506 106.32284865 203.02587891 93.14526367 C202.15962891 91.56745117 202.15962891 91.56745117 201.27587891 89.95776367 C195.54939646 82.79966062 188.19138999 76.93419974 179.02587891 75.14526367 C176.44768801 75.05617616 173.89749572 75.01894373 171.31982422 75.03173828 C170.54870804 75.03159225 169.77759186 75.03144623 168.98310852 75.03129578 C166.44004481 75.03199119 163.89705479 75.03976618 161.35400391 75.04760742 C159.58852173 75.04947292 157.82303903 75.0508962 156.05755615 75.05189514 C151.41496344 75.05570992 146.77240211 75.06553135 142.12982178 75.07659912 C137.39075139 75.08683557 132.65167592 75.09139755 127.91259766 75.09643555 C118.61701097 75.10715454 109.32144755 75.12421851 100.02587891 75.14526367 C100.12750587 73.66458405 100.12750587 73.66458405 100.23118591 72.1539917 C102.33402968 46.14928379 102.33402968 46.14928379 91.29101562 23.52319336 C89.90833122 22.12893476 88.50678057 20.75317012 87.08837891 19.39526367 C86.36636292 18.66746704 85.64434692 17.93967041 84.90045166 17.18981934 C67.78559397 0.7041944 46.07194206 -0.26851182 23.53051758 -0.08676147 C-4.9083103 0.4766873 -23.0438728 9.57038083 -38.8762207 34.00244141 Z " fill="#000006" transform="translate(227.97412109375,82.854736328125)"/>
<path d="M0 0 C0.84771973 0.421604 1.69543945 0.84320801 2.56884766 1.27758789 C3.33769287 1.65318848 4.10653809 2.02878906 4.89868164 2.41577148 C5.69604736 2.83165527 6.49341309 3.24753906 7.31494141 3.67602539 C8.67655396 4.38529175 8.67655396 4.38529175 10.06567383 5.10888672 C11.03609619 5.61830811 12.00651855 6.12772949 13.00634766 6.65258789 C14.02768799 7.187146 15.04902832 7.7217041 16.10131836 8.27246094 C23.75617313 12.29292481 31.35885734 16.40313101 38.93920898 20.56201172 C46.49703013 24.70580338 54.09119498 28.7794418 61.69384766 32.84008789 C73.03432888 38.89867204 84.32278807 45.04561248 95.56884766 51.27758789 C92.89774847 54.08068243 90.2165747 56.34454359 86.99853516 58.49243164 C86.11141846 59.08942871 85.22430176 59.68642578 84.31030273 60.30151367 C82.89140747 61.24873291 82.89140747 61.24873291 81.44384766 62.21508789 C74.3404403 67.00349613 67.29930169 71.84966952 60.38134766 76.90258789 C53.3909198 82.00216231 46.30613042 86.944045 39.1418457 91.79638672 C35.83535095 94.03615854 32.53699085 96.27237713 29.32666016 98.64868164 C28.45783203 99.2893457 27.58900391 99.93000977 26.69384766 100.59008789 C25.99517578 101.1224707 25.29650391 101.65485352 24.57666016 102.20336914 C21.91306482 103.62844447 20.56748329 103.74530511 17.56884766 103.27758789 C15.91280298 102.41493344 14.26297894 101.53463705 12.671875 100.55737305 C10.21945099 99.06496457 7.71189224 97.70903923 5.18212891 96.35180664 C4.17480713 95.80975586 3.16748535 95.26770508 2.12963867 94.70922852 C1.05770264 94.13366211 -0.0142334 93.5580957 -1.11865234 92.96508789 C-2.24408447 92.35987305 -3.3695166 91.7546582 -4.52905273 91.13110352 C-10.67560725 87.82648365 -16.82605494 84.52914005 -22.97802734 81.23461914 C-23.59833328 80.90241867 -24.21863922 80.5702182 -24.85774231 80.22795105 C-27.84684318 78.62734711 -30.83634863 77.02750924 -33.82641602 75.42871094 C-40.71268305 71.74425167 -47.58130154 68.02933063 -54.43115234 64.27758789 C-54.43115234 63.61758789 -54.43115234 62.95758789 -54.43115234 62.27758789 C-55.07439453 62.20668945 -55.71763672 62.13579102 -56.38037109 62.06274414 C-60.70506712 60.94973018 -64.34210845 58.85063539 -68.24365234 56.71508789 C-69.03191406 56.2903418 -69.82017578 55.8655957 -70.63232422 55.42797852 C-72.56849015 54.38362235 -74.50120602 53.33338019 -76.43115234 52.27758789 C-72.75621166 48.18012729 -68.34914296 45.37361118 -63.80615234 42.34008789 C-57.20530367 37.88209221 -50.68101397 33.34364023 -44.24365234 28.65258789 C-38.03595938 24.13483805 -31.78321537 19.70079072 -25.42333984 15.39941406 C-21.82965033 12.96154494 -18.30623047 10.45846769 -14.82958984 7.85571289 C-14.06396729 7.29053955 -13.29834473 6.72536621 -12.50952148 6.14306641 C-11.02878014 5.04651051 -9.55859784 3.93551118 -8.10083008 2.80859375 C-7.43253174 2.3175415 -6.7642334 1.82648926 -6.07568359 1.32055664 C-5.49149658 0.87736084 -4.90730957 0.43416504 -4.30541992 -0.02246094 C-2.43115234 -0.72241211 -2.43115234 -0.72241211 0 0 Z " fill="#FDFDFE" transform="translate(246.43115234375,216.722412109375)"/>
<path d="M0 0 C0.66 0 1.32 0 2 0 C2 0.66 2 1.32 2 2 C3.32136963 2.41052612 3.32136963 2.41052612 4.66943359 2.8293457 C7.75351131 3.91336217 10.42597971 5.1662364 13.2890625 6.73046875 C14.29960693 7.27896484 15.31015137 7.82746094 16.35131836 8.39257812 C17.4316333 8.98490234 18.51194824 9.57722656 19.625 10.1875 C21.35400012 11.1273857 23.0830085 12.06725647 24.81242371 13.00637817 C26.01702308 13.66078945 27.22129293 14.31580766 28.42524719 14.97140503 C35.24353463 18.68334336 42.09065941 22.34108859 48.9375 26 C55.38305494 29.44579131 61.82639788 32.89563346 68.25390625 36.375 C69.14537354 36.85710937 70.03684082 37.33921875 70.95532227 37.8359375 C73 39 73 39 74 40 C79.83703125 39.73864039 83.30887738 37.79799078 87.75 34.25 C89.06538858 33.241758 90.38321641 32.23669249 91.703125 31.234375 C92.39728516 30.70521484 93.09144531 30.17605469 93.80664062 29.63085938 C97.61901793 26.79618881 101.56274028 24.15698557 105.5 21.5 C113.81652001 15.86263869 121.94706344 10.00659992 130 4 C130.33 4.66 130.66 5.32 131 6 C132.99755809 6.67394817 134.99818351 7.33880776 137 8 C139.67723032 9.28005505 142.2735686 10.69824596 144.875 12.125 C145.56335938 12.49753906 146.25171875 12.87007813 146.9609375 13.25390625 C148.64294798 14.16499526 150.32180436 15.08190315 152 16 C148.42630203 19.95826915 144.22024381 22.69434012 139.8125 25.625 C138.35789888 26.59218885 136.90593149 27.56335415 135.45703125 28.5390625 C134.81741455 28.96396973 134.17779785 29.38887695 133.51879883 29.82666016 C131.84813102 30.94173612 131.84813102 30.94173612 131 33 C131.86286621 33.18357056 131.86286621 33.18357056 132.74316406 33.37084961 C135.08616768 34.02402143 136.96986547 34.91560946 139.109375 36.06640625 C139.86347656 36.46923828 140.61757813 36.87207031 141.39453125 37.28710938 C142.17183594 37.70798828 142.94914063 38.12886719 143.75 38.5625 C144.54277344 38.98724609 145.33554687 39.41199219 146.15234375 39.84960938 C148.10371067 40.89582417 150.05279814 41.94605953 152 43 C148.922555 46.30044826 145.63121175 48.75816419 141.875 51.25 C140.82054687 51.95640625 139.76609375 52.6628125 138.6796875 53.390625 C136 55 136 55 134 55 C134 55.66 134 56.32 134 57 C131.98046875 58.4453125 131.98046875 58.4453125 129.1875 60.125 C125.28235244 62.53963322 121.50571816 65.02218233 117.8125 67.75 C113.07079964 71.24099099 108.27467113 74.64317701 103.4375 78 C102.73407471 78.49338867 102.03064941 78.98677734 101.3059082 79.49511719 C96.23275776 83 96.23275776 83 94 83 C94 83.66 94 84.32 94 85 C92.27734375 86.33203125 92.27734375 86.33203125 89.9375 87.8125 C86.90325174 89.73862938 84.09145422 91.72574374 81.3125 94 C78 96 78 96 75.17773438 95.32958984 C71.93027668 93.9708272 68.91624419 92.44452134 65.84375 90.7265625 C64.97996231 90.24663849 64.97996231 90.24663849 64.09872437 89.75701904 C62.22991671 88.7175439 60.36502326 87.67124711 58.5 86.625 C57.20101095 85.9012676 55.90169108 85.17812867 54.60205078 84.45556641 C52.63137903 83.35987255 50.66089487 82.26385921 48.69143677 81.16598511 C42.7719895 77.86666818 36.82814922 74.61310146 30.875 71.375 C30.03130859 70.91561035 29.18761719 70.4562207 28.31835938 69.98291016 C26.69661108 69.0999942 25.07454549 68.21766077 23.45214844 67.3359375 C21.76609661 66.41737163 20.08195258 65.495298 18.39941406 64.5703125 C10.20918361 60.07441135 1.91720541 55.78516819 -6.38671875 51.50390625 C-7.45535156 50.95089844 -8.52398437 50.39789063 -9.625 49.828125 C-10.58664063 49.3321582 -11.54828125 48.83619141 -12.5390625 48.32519531 C-15 47 -15 47 -18 45 C-17.62725409 42.41757737 -17.26502965 41.24628393 -15.32592773 39.44433594 C-14.26547241 38.72165527 -14.26547241 38.72165527 -13.18359375 37.984375 C-12.41982422 37.45585937 -11.65605469 36.92734375 -10.86914062 36.3828125 C-10.06669922 35.84398437 -9.26425781 35.30515625 -8.4375 34.75 C-7.22803711 33.91855469 -7.22803711 33.91855469 -5.99414062 33.0703125 C-4.00270077 31.70340704 -2.00475077 30.34727363 0 29 C-3.99372394 25.55686712 -8.16112054 23.15358364 -12.8125 20.75 C-13.50537109 20.38648438 -14.19824219 20.02296875 -14.91210938 19.6484375 C-16.6055689 18.76083113 -18.30244124 17.87974115 -20 17 C-15.83960091 12.37976732 -10.64717595 9.27971776 -5.4921875 5.890625 C-4.78835937 5.41882813 -4.08453125 4.94703125 -3.359375 4.4609375 C-2.71452148 4.03603027 -2.06966797 3.61112305 -1.40527344 3.17333984 C-0.9415332 2.7861377 -0.47779297 2.39893555 0 2 C0 1.34 0 0.68 0 0 Z " fill="#ECB1C5" transform="translate(190,279)"/>
<path d="M0 0 C10.62871071 5.25895168 21.16331392 10.66661563 31.625 16.25 C33.01666952 16.99107339 34.40835265 17.73212121 35.80004883 18.47314453 C44.1151129 22.90502137 52.41341058 27.36701849 60.6875 31.875 C61.57066895 32.35614258 62.45383789 32.83728516 63.36376953 33.33300781 C64.58169189 33.99961426 64.58169189 33.99961426 65.82421875 34.6796875 C66.5620459 35.08026367 67.29987305 35.48083984 68.06005859 35.89355469 C70 37 70 37 72.76953125 38.9453125 C74.99195701 40.28160798 74.99195701 40.28160798 77.52734375 39.390625 C80.03178302 37.98212519 82.27205902 36.48575428 84.5625 34.75 C89.85197607 30.82026812 95.21987053 27.01904883 100.625 23.25 C108.03656469 18.07779014 115.43079515 12.88245517 122.79541016 7.64355469 C127.78246426 4.10876787 127.78246426 4.10876787 130 3 C130 3.66 130 4.32 130 5 C130.57524414 5.12238037 131.15048828 5.24476074 131.74316406 5.37084961 C134.08616768 6.02402143 135.96986547 6.91560946 138.109375 8.06640625 C138.86347656 8.46923828 139.61757813 8.87207031 140.39453125 9.28710938 C141.17183594 9.70798828 141.94914063 10.12886719 142.75 10.5625 C143.54277344 10.98724609 144.33554687 11.41199219 145.15234375 11.84960938 C147.10371067 12.89582417 149.05279814 13.94605953 151 15 C147.922555 18.30044826 144.63121175 20.75816419 140.875 23.25 C139.82054687 23.95640625 138.76609375 24.6628125 137.6796875 25.390625 C135 27 135 27 133 27 C133 27.66 133 28.32 133 29 C130.98046875 30.4453125 130.98046875 30.4453125 128.1875 32.125 C124.28235244 34.53963322 120.50571816 37.02218233 116.8125 39.75 C112.07079964 43.24099099 107.27467113 46.64317701 102.4375 50 C101.73407471 50.49338867 101.03064941 50.98677734 100.3059082 51.49511719 C95.23275776 55 95.23275776 55 93 55 C93 55.66 93 56.32 93 57 C91.27734375 58.33203125 91.27734375 58.33203125 88.9375 59.8125 C85.90325174 61.73862938 83.09145422 63.72574374 80.3125 66 C77 68 77 68 74.17773438 67.32958984 C70.93027668 65.9708272 67.91624419 64.44452134 64.84375 62.7265625 C64.26789154 62.40661316 63.69203308 62.08666382 63.09872437 61.75701904 C61.22991671 60.7175439 59.36502326 59.67124711 57.5 58.625 C56.20101095 57.9012676 54.90169108 57.17812867 53.60205078 56.45556641 C51.63137903 55.35987255 49.66089487 54.26385921 47.69143677 53.16598511 C41.7719895 49.86666818 35.82814922 46.61310146 29.875 43.375 C29.03130859 42.91561035 28.18761719 42.4562207 27.31835938 41.98291016 C25.69661108 41.0999942 24.07454549 40.21766077 22.45214844 39.3359375 C20.76609661 38.41737163 19.08195258 37.495298 17.39941406 36.5703125 C9.20918361 32.07441135 0.91720541 27.78516819 -7.38671875 23.50390625 C-8.45535156 22.95089844 -9.52398437 22.39789063 -10.625 21.828125 C-11.58664063 21.3321582 -12.54828125 20.83619141 -13.5390625 20.32519531 C-16 19 -16 19 -19 17 C-18.62656898 14.43127864 -18.27156008 13.25216864 -16.34179688 11.46020508 C-15.64119141 10.98478271 -14.94058594 10.50936035 -14.21875 10.01953125 C-13.45949219 9.49552734 -12.70023438 8.97152344 -11.91796875 8.43164062 C-11.12003906 7.89732422 -10.32210937 7.36300781 -9.5 6.8125 C-7.92676467 5.73614271 -6.35383176 4.6593432 -4.78125 3.58203125 C-3.7303418 2.87397339 -3.7303418 2.87397339 -2.65820312 2.15161133 C-1.0443321 1.10347642 -1.0443321 1.10347642 0 0 Z " fill="#EE3D7B" transform="translate(191,307)"/>
<path d="M0 0 C23.43 0 46.86 0 71 0 C71 11.55 71 23.1 71 35 C47.57 35 24.14 35 0 35 C0 23.45 0 11.9 0 0 Z M9 14 C9 19.61 9 25.22 9 31 C26.49 31 43.98 31 62 31 C62 25.39 62 19.78 62 14 C44.51 14 27.02 14 9 14 Z " fill="#000006" transform="translate(221,123)"/>
<path d="M0 0 C10.62871071 5.25895168 21.16331392 10.66661563 31.625 16.25 C33.01666952 16.99107339 34.40835265 17.73212121 35.80004883 18.47314453 C44.1151129 22.90502137 52.41341058 27.36701849 60.6875 31.875 C61.57066895 32.35614258 62.45383789 32.83728516 63.36376953 33.33300781 C64.58169189 33.99961426 64.58169189 33.99961426 65.82421875 34.6796875 C66.5620459 35.08026367 67.29987305 35.48083984 68.06005859 35.89355469 C70 37 70 37 72.76953125 38.9453125 C74.99195701 40.28160798 74.99195701 40.28160798 77.52734375 39.390625 C80.03178302 37.98212519 82.27205902 36.48575428 84.5625 34.75 C89.85197607 30.82026812 95.21987053 27.01904883 100.625 23.25 C108.03656469 18.07779014 115.43079515 12.88245517 122.79541016 7.64355469 C127.78246426 4.10876787 127.78246426 4.10876787 130 3 C130 3.66 130 4.32 130 5 C130.56203125 5.11214844 131.1240625 5.22429687 131.703125 5.33984375 C134.31513108 6.09057339 136.39471322 7.21167376 138.75 8.5625 C139.94882812 9.24505859 139.94882812 9.24505859 141.171875 9.94140625 C141.77515625 10.29074219 142.3784375 10.64007813 143 11 C141.68 11.33 140.36 11.66 139 12 C139 11.34 139 10.68 139 10 C136.30184928 8.96406842 136.30184928 8.96406842 133 9 C131.23802794 10.31595908 129.89907704 11.79312577 128.4375 13.43359375 C125.10100533 17.06928495 121.66847212 18.06630558 117 19 C114.41881151 20.35205111 112.37344806 21.62655194 110.3125 23.6875 C109.879375 24.120625 109.44625 24.55375 109 25 C108.34 25 107.68 25 107 25 C107 24.34 107 23.68 107 23 C100.46681491 27.05849377 94.61369459 31.72154077 88.796875 36.73046875 C86.2803703 38.77249282 83.80979373 40.40181195 81 42 C80.01 42.66 79.02 43.32 78 44 C74.4375 42.625 74.4375 42.625 71 41 C70.34 41 69.68 41 69 41 C69 40.34 69 39.68 69 39 C68.34 39 67.68 39 67 39 C67 38.34 67 37.68 67 37 C66.0925 37.0825 65.185 37.165 64.25 37.25 C60.16442925 36.93572533 59.79044193 35.87016885 57 33 C52.48717527 30.55626284 48.05396787 28.89187668 43 28 C42.01 27.34 41.02 26.68 40 26 C40 25.01 40 24.02 40 23 C39.05125 22.71125 38.1025 22.4225 37.125 22.125 C34 21 34 21 32 19 C29.67855552 17.93600461 27.3680203 16.94978673 25 16 C24.11441406 15.64292969 23.22882813 15.28585937 22.31640625 14.91796875 C19.87973606 13.9398444 17.44089726 12.96751863 15 12 C15 11.34 15 10.68 15 10 C13.68 9.67 12.36 9.34 11 9 C11 8.34 11 7.68 11 7 C10.01 7.33 9.02 7.66 8 8 C8 7.34 8 6.68 8 6 C4.7 5.34 1.4 4.68 -2 4 C-1.34 2.68 -0.68 1.36 0 0 Z " fill="#C7366A" transform="translate(191,307)"/>
<path d="M0 0 C0.495 0.99 0.495 0.99 1 2 C2.99571323 2.67939174 4.99594773 3.34561559 7 4 C7.66 4.66 8.32 5.32 9 6 C7.9275 6.4125 6.855 6.825 5.75 7.25 C3.12257797 8.35489176 1.88431094 9.11568906 -0.1875 11.1875 C-0.785625 11.785625 -1.38375 12.38375 -2 13 C-3.32 13 -4.64 13 -6 13 C-7.74253759 14.07854459 -7.74253759 14.07854459 -9.3125 15.625 C-10.22128906 16.44484375 -10.22128906 16.44484375 -11.1484375 17.28125 C-12.06496094 18.13203125 -12.06496094 18.13203125 -13 19 C-17.70161418 23.33995155 -22.17856396 26.34628583 -28 29 C-28.99 29.515625 -29.98 30.03125 -31 30.5625 C-33.34064187 31.68405756 -35.56373296 32.57926957 -38 33.4375 C-41.73984126 34.78839323 -44.70052161 36.77643847 -48 39 C-51.375 40.25 -51.375 40.25 -54 41 C-52.64898842 37.85044636 -51.32340553 36.19704987 -48.53515625 34.22265625 C-47.82721924 33.71589355 -47.11928223 33.20913086 -46.38989258 32.68701172 C-45.62185303 32.15092285 -44.85381348 31.61483398 -44.0625 31.0625 C-43.26416748 30.49547363 -42.46583496 29.92844727 -41.64331055 29.34423828 C-35.13064238 24.73816627 -28.54061804 20.24451527 -21.94042969 15.76513672 C-14.48952106 10.69399188 -7.22378866 5.3881473 0 0 Z " fill="#BA919F" transform="translate(320,283)"/>
<path d="M0 0 C1.65 0.33 3.3 0.66 5 1 C2.3905551 6.37238657 -1.75725823 9.37862912 -7 12 C-8.84425989 14.26816301 -8.84425989 14.26816301 -10 17 C-9.71195826 19.2456424 -9.71195826 19.2456424 -8 21 C-4.9665533 22.76727858 -4.9665533 22.76727858 -2 24 C-2 24.66 -2 25.32 -2 26 C-0.02 26.33 1.96 26.66 4 27 C4.495 28.485 4.495 28.485 5 30 C1.77210252 34.9494428 -1.71331324 37.21538544 -7.01171875 39.7265625 C-9.34569087 41.22140515 -9.88891605 42.51549284 -11 45 C-12.8125 45.5625 -12.8125 45.5625 -15 46 C-21.81636254 49.59752468 -27.82680511 54.68278858 -33.45703125 59.8984375 C-35 61 -35 61 -38 61 C-39.83713104 62.10368733 -39.83713104 62.10368733 -41.6875 63.625 C-42.39003906 64.17414063 -43.09257812 64.72328125 -43.81640625 65.2890625 C-44.53699219 65.85367188 -45.25757813 66.41828125 -46 67 C-47.37388866 68.00152631 -48.74885869 69.00157118 -50.125 70 C-52.65866715 71.87934146 -54.81399397 73.79674821 -56.9375 76.125 C-61.00855667 80.37451395 -67.17744352 83.14732437 -73 84 C-75.25 82.0625 -75.25 82.0625 -77 80 C-76.12472656 80.24363281 -75.24945313 80.48726563 -74.34765625 80.73828125 C-70.00042508 81.07814646 -68.7720882 79.89596353 -65.4375 77.1875 C-62.03420633 74.4600377 -59.14299214 72.41595934 -55 71 C-55 70.34 -55 69.68 -55 69 C-53.5222168 67.79833984 -53.5222168 67.79833984 -51.44921875 66.4609375 C-50.69310303 65.96674316 -49.9369873 65.47254883 -49.15795898 64.96337891 C-48.34270752 64.43921387 -47.52745605 63.91504883 -46.6875 63.375 C-45.02486265 62.28826002 -43.36340057 61.19971981 -41.703125 60.109375 C-40.89294922 59.57763672 -40.08277344 59.04589844 -39.24804688 58.49804688 C-35.54737226 56.03200219 -31.98471787 53.39748478 -28.40625 50.7578125 C-17.78666667 43 -17.78666667 43 -15 43 C-15 42.34 -15 41.68 -15 41 C-12.37570845 39.175405 -9.63997242 37.58472253 -6.89453125 35.94921875 C-3.86843079 33.91139941 -1.49554588 31.65066208 1 29 C-1.60238792 27.51762714 -4.20678228 26.03899869 -6.8125 24.5625 C-7.91948242 23.93118164 -7.91948242 23.93118164 -9.04882812 23.28710938 C-9.76103516 22.88427734 -10.47324219 22.48144531 -11.20703125 22.06640625 C-11.8616333 21.69459229 -12.51623535 21.32277832 -13.19067383 20.93969727 C-15.14536412 19.8645343 -15.14536412 19.8645343 -18 19 C-16.57704412 15.5245778 -14.99843009 14.01306738 -11.8671875 11.984375 C-11.06152344 11.45585937 -10.25585938 10.92734375 -9.42578125 10.3828125 C-8.58402344 9.84398437 -7.74226563 9.30515625 -6.875 8.75 C-6.02550781 8.19570313 -5.17601562 7.64140625 -4.30078125 7.0703125 C-2.20582167 5.70505794 -0.10560525 4.34875467 2 3 C1.01 1.515 1.01 1.515 0 0 Z " fill="#483477" transform="translate(339,293)"/>
<path d="M0 0 C-1.51417094 0.96882567 -3.03674154 1.92452752 -4.5625 2.875 C-5.40941406 3.40867187 -6.25632812 3.94234375 -7.12890625 4.4921875 C-14.39797054 8.30968249 -21.12644041 8.28544925 -29.19056702 8.25396729 C-31.03078695 8.25864726 -31.03078695 8.25864726 -32.90818304 8.26342177 C-36.30133463 8.27000658 -39.69426401 8.26765322 -43.08740199 8.26144934 C-46.75137564 8.25691813 -50.4153301 8.26391189 -54.07929993 8.26940918 C-61.25194916 8.27829742 -68.42455651 8.27638378 -75.59720737 8.2705839 C-81.42651228 8.26606553 -87.25580546 8.26545526 -93.08511162 8.26763153 C-93.91503922 8.267938 -94.74496683 8.26824446 -95.60004376 8.26856022 C-97.28605863 8.26919967 -98.97207351 8.2698481 -100.65808838 8.2705054 C-116.46349805 8.27620693 -132.26888452 8.26965338 -148.07429039 8.25890467 C-161.63555742 8.24996766 -175.19679022 8.25152277 -188.75805664 8.26074219 C-204.50880177 8.27144509 -220.25952657 8.27565937 -236.01027483 8.26951766 C-237.68975126 8.26888056 -239.3692277 8.26825182 -241.04870415 8.26763153 C-241.87502804 8.26732298 -242.70135193 8.26701443 -243.55271595 8.26669653 C-249.37541547 8.26496977 -255.19810211 8.26788424 -261.02079964 8.27259064 C-268.11605669 8.27819961 -275.2112695 8.2766826 -282.30652148 8.26602915 C-285.92648954 8.26077292 -289.54638381 8.25871489 -293.16635132 8.26532745 C-297.08974815 8.27238592 -301.01302415 8.2639578 -304.93641663 8.25396729 C-306.65396553 8.26065945 -306.65396553 8.26065945 -308.40621239 8.26748681 C-313.65624553 8.24147477 -318.1010278 8.14655171 -323 6 C-319.88889769 4.9629659 -318.33166145 5.22211269 -315.18486953 5.7329421 C-310.50342672 6.30515763 -305.76679024 6.14409373 -301.05740356 6.14044189 C-299.85720829 6.14341302 -298.65701301 6.14638414 -297.42044818 6.1494453 C-294.10156055 6.15660215 -290.7827247 6.15930277 -287.46383309 6.16004276 C-283.87955924 6.16189975 -280.29529646 6.16945014 -276.71102905 6.17617798 C-268.88051204 6.18973379 -261.05000016 6.19578128 -253.21947336 6.20018864 C-248.32791314 6.20295484 -243.43635488 6.2071928 -238.54479599 6.21169281 C-224.99415524 6.22388022 -211.44351606 6.23418165 -197.89286995 6.2375679 C-197.02640215 6.23778747 -196.15993434 6.23800703 -195.26720994 6.23823325 C-194.39871107 6.23845153 -193.53021219 6.23866981 -192.63539517 6.2388947 C-190.87558246 6.23933816 -189.11576974 6.23978473 -187.35595703 6.24023438 C-186.04657487 6.24056652 -186.04657487 6.24056652 -184.71074055 6.24090537 C-170.56201547 6.24485458 -156.41334185 6.26231471 -142.26463665 6.2855939 C-127.72902002 6.30931624 -113.19342922 6.3217701 -98.65779293 6.32293582 C-90.5002384 6.3238519 -82.34275101 6.32958778 -74.185215 6.34775543 C-67.24045245 6.3631681 -60.2957778 6.36826988 -53.3510014 6.36001733 C-49.80960554 6.3561154 -46.26838663 6.35701804 -42.72701263 6.37107468 C-38.88345367 6.38619102 -35.04014263 6.37793387 -31.19656372 6.36749268 C-30.08361533 6.37554908 -28.97066694 6.38360548 -27.82399285 6.39190602 C-22.02246572 6.35506455 -17.24359849 5.79929217 -11.83293331 3.64333034 C-10 3 -10 3 -7 3 C-7 2.34 -7 1.68 -7 1 C-3.375 -1.125 -3.375 -1.125 0 0 Z " fill="#374289" transform="translate(423,417)"/>
<path d="M0 0 C2.4747129 0.00429008 4.94798375 -0.02083394 7.42252731 -0.04821777 C26.87643985 -0.15779337 42.81921236 0.96839341 57.41254807 15.26037598 C63.69152827 22.04693295 69.23290274 29.24411058 74.15205002 37.06677246 C73.82205002 38.05677246 73.49205002 39.04677246 73.15205002 40.06677246 C71.44320997 38.44337441 69.77758285 36.77358193 68.15205002 35.06677246 C68.15205002 34.40677246 68.15205002 33.74677246 68.15205002 33.06677246 C67.55005783 32.96622559 66.94806564 32.86567871 66.32783127 32.76208496 C63.71461864 31.9269829 63.02098077 31.08177524 61.33955002 28.94177246 C56.96256337 23.65853748 52.05136348 18.94248084 47.13129807 14.17175293 C46.48974777 13.5415625 45.84819748 12.91137207 45.18720627 12.26208496 C44.60334152 11.69505859 44.01947678 11.12803223 43.41791916 10.54382324 C42.15205002 9.06677246 42.15205002 9.06677246 42.15205002 7.06677246 C38.66630114 5.90485617 35.88093275 5.90639232 32.20209885 5.8614502 C31.49940369 5.8515506 30.79670853 5.841651 30.07271957 5.83145142 C27.751541 5.79988012 25.43034197 5.77509634 23.10908127 5.75036621 C21.49910578 5.7297929 19.88913566 5.70879633 18.27917099 5.68739319 C14.04268864 5.6322114 9.80615786 5.58278497 5.56959152 5.5345459 C1.2461224 5.48430245 -3.07727642 5.42863123 -7.40068436 5.37341309 C-15.88304679 5.26587913 -24.36546805 5.16442359 -32.84794998 5.06677246 C-33.13154373 5.67649902 -33.41513748 6.28622559 -33.70732498 6.91442871 C-36.392689 11.98167383 -41.46193743 15.49676225 -45.84794998 19.06677246 C-46.50794998 18.73677246 -47.16794998 18.40677246 -47.84794998 18.06677246 C-36.19754274 -0.0593369 -19.68037905 -0.05785994 0 0 Z " fill="#5B6ABE" transform="translate(252.84794998168945,83.9332275390625)"/>
<path d="M0 0 C0.79062332 -0.00014603 1.58124664 -0.00029205 2.39582825 -0.0004425 C5.00382246 0.00025303 7.61174486 0.00802864 10.21972656 0.01586914 C12.03004924 0.01773459 13.84037243 0.0191579 15.6506958 0.02015686 C20.41165566 0.023972 25.17258493 0.03379374 29.93353271 0.04486084 C34.79324937 0.05509652 39.65297098 0.0596591 44.51269531 0.06469727 C54.04526082 0.07541689 63.57780365 0.09248129 73.11035156 0.11352539 C73.11035156 0.77352539 73.11035156 1.43352539 73.11035156 2.11352539 C71.66122124 2.12565567 71.66122124 2.12565567 70.18281555 2.13803101 C61.07496315 2.21554134 51.96725924 2.30329303 42.85960102 2.40105247 C38.17734549 2.45098205 33.49511216 2.49731243 28.81274414 2.53540039 C24.29335838 2.57229531 19.77415982 2.61866678 15.25493431 2.6715889 C13.53141758 2.69011047 11.80786075 2.70522669 10.08428383 2.71686935 C7.66870613 2.73377013 5.25355506 2.76281414 2.83813477 2.79467773 C1.77106293 2.79791801 1.77106293 2.79791801 0.68243408 2.80122375 C-3.30781219 2.86839289 -6.2625078 3.49184154 -9.88964844 5.11352539 C-11.04464844 5.21665039 -12.19964844 5.31977539 -13.38964844 5.42602539 C-17.71415177 6.2754814 -19.0643984 7.81740035 -21.88964844 11.11352539 C-23.57714844 12.92602539 -23.57714844 12.92602539 -24.88964844 14.11352539 C-25.54964844 14.11352539 -26.20964844 14.11352539 -26.88964844 14.11352539 C-27.13714844 14.85602539 -27.38464844 15.59852539 -27.63964844 16.36352539 C-28.98112144 19.31476601 -30.4987037 20.96167513 -32.88964844 23.11352539 C-32.02895158 15.7976021 -27.44241785 11.27369661 -22.04589844 6.72290039 C-15.007434 1.46955374 -8.6798848 -0.04199916 0 0 Z " fill="#5D6CB5" transform="translate(113.8896484375,157.886474609375)"/>
<path d="M0 0 C5.6933058 1.59486742 10.51439905 4.36045988 15.625 7.25 C23.66936754 11.74604055 23.66936754 11.74604055 31.875 15.9375 C39.36216577 19.6076793 46.63411733 23.67514534 53.94140625 27.6875 C58.16509819 30.00459197 62.40323811 32.29235364 66.65234375 34.5625 C67.74321289 35.14700928 68.83408203 35.73151855 69.95800781 36.33374023 C72.07622395 37.46762959 74.19660095 38.59749342 76.31933594 39.72290039 C77.28000977 40.23844482 78.24068359 40.75398926 79.23046875 41.28515625 C80.08020264 41.73769775 80.92993652 42.19023926 81.80541992 42.65649414 C83.87599978 43.92408798 85.37933769 45.20617735 87 47 C86 48 86 48 83.1875 48.3125 C80 48 80 48 77.625 46.125 C76 44 76 44 76 42 C74.02 41.505 74.02 41.505 72 41 C72 40.34 72 39.68 72 39 C71.4225 39.2475 70.845 39.495 70.25 39.75 C69.5075 39.8325 68.765 39.915 68 40 C67.40445313 39.401875 66.80890625 38.80375 66.1953125 38.1875 C63.79249045 35.79322892 61.68963328 34.67736345 58.625 33.25 C53.92144225 30.98426182 49.38340761 28.56094276 44.875 25.9375 C40.03277011 23.1295366 35.15188633 20.47221089 30.11328125 18.03125 C28.27817198 17.13574381 26.47882511 16.16765902 24.6875 15.1875 C21.87391333 13.94428729 20.03841013 13.73190499 17 14 C16.34 12.68 15.68 11.36 15 10 C14.0925 10.226875 13.185 10.45375 12.25 10.6875 C9 11 9 11 6.625 9.875 C5 8 5 8 4.75 5.3125 C4.8325 4.549375 4.915 3.78625 5 3 C3.68 3 2.36 3 1 3 C0.67 2.01 0.34 1.02 0 0 Z " fill="#4C3680" transform="translate(175,326)"/>
<path d="M0 0 C10.62871071 5.25895168 21.16331392 10.66661563 31.625 16.25 C33.01666952 16.99107339 34.40835265 17.73212121 35.80004883 18.47314453 C44.1151129 22.90502137 52.41341058 27.36701849 60.6875 31.875 C61.57066895 32.35614258 62.45383789 32.83728516 63.36376953 33.33300781 C64.58169189 33.99961426 64.58169189 33.99961426 65.82421875 34.6796875 C66.92830078 35.2830896 66.92830078 35.2830896 68.0546875 35.89868164 C69.69138676 36.82528184 71.28035606 37.83547174 72.85546875 38.86328125 C75.14588551 40.36337113 75.14588551 40.36337113 78.625 39.3125 C82.05789135 38.11697941 82.05789135 38.11697941 85 36 C86.485 36.495 86.485 36.495 88 37 C86.73608512 38.00873016 85.46359117 39.00671822 84.1875 40 C83.47980469 40.556875 82.77210938 41.11375 82.04296875 41.6875 C80 43 80 43 77 43 C74.99594773 42.34561559 72.99571323 41.67939174 71 41 C70.34 41 69.68 41 69 41 C69 40.34 69 39.68 69 39 C68.34 39 67.68 39 67 39 C67 38.34 67 37.68 67 37 C66.0925 37.0825 65.185 37.165 64.25 37.25 C60.16442925 36.93572533 59.79044193 35.87016885 57 33 C52.48717527 30.55626284 48.05396787 28.89187668 43 28 C42.01 27.34 41.02 26.68 40 26 C40 25.01 40 24.02 40 23 C39.05125 22.71125 38.1025 22.4225 37.125 22.125 C34 21 34 21 32 19 C29.67855552 17.93600461 27.3680203 16.94978673 25 16 C24.11441406 15.64292969 23.22882813 15.28585937 22.31640625 14.91796875 C19.87973606 13.9398444 17.44089726 12.96751863 15 12 C15 11.34 15 10.68 15 10 C13.68 9.67 12.36 9.34 11 9 C11 8.34 11 7.68 11 7 C10.01 7.33 9.02 7.66 8 8 C8 7.34 8 6.68 8 6 C4.7 5.34 1.4 4.68 -2 4 C-1.34 2.68 -0.68 1.36 0 0 Z " fill="#CA3F6E" transform="translate(191,307)"/>
<path d="M0 0 C10.12753427 -0.09297796 20.25496578 -0.16390546 30.38284111 -0.20724869 C35.08643626 -0.22805896 39.78973783 -0.25625566 44.49316406 -0.30175781 C49.03842144 -0.34545098 53.58339772 -0.36918636 58.12884903 -0.37950897 C59.85668483 -0.38685845 61.5845065 -0.40120964 63.31222153 -0.42292023 C74.471542 -0.5574796 84.32408929 -0.15409987 93.5 7 C94.1290625 7.474375 94.758125 7.94875 95.40625 8.4375 C97.15617187 10.15310968 98.0352515 11.76178347 99 14 C95.34683329 12.75023244 94.21934164 12.32901247 92 9 C89.80349029 7.58403958 89.80349029 7.58403958 87.25 6.375 C86.40953125 5.94960937 85.5690625 5.52421875 84.703125 5.0859375 C79.37221467 2.94432901 73.93005814 2.84148029 68.25048828 2.79467773 C67.49858719 2.78477814 66.7466861 2.77487854 65.97200012 2.76467896 C63.50480214 2.73327605 61.03758496 2.7083911 58.5703125 2.68359375 C56.85252401 2.66300587 55.13474038 2.64200893 53.41696167 2.62062073 C48.90926055 2.5655894 44.40151515 2.51609708 39.89373779 2.46777344 C35.28849373 2.4174196 30.68331349 2.3618062 26.078125 2.30664062 C17.05213793 2.19929092 8.0260953 2.09779504 -1 2 C-0.67 1.34 -0.34 0.68 0 0 Z " fill="#5D6BB6" transform="translate(328,158)"/>
<path d="M0 0 C0.66 0.66 1.32 1.32 2 2 C0.9275 2.4125 -0.145 2.825 -1.25 3.25 C-3.87742203 4.35489176 -5.11568906 5.11568906 -7.1875 7.1875 C-7.785625 7.785625 -8.38375 8.38375 -9 9 C-10.32 9 -11.64 9 -13 9 C-14.74253759 10.07854459 -14.74253759 10.07854459 -16.3125 11.625 C-16.91835938 12.1715625 -17.52421875 12.718125 -18.1484375 13.28125 C-18.75945312 13.8484375 -19.37046875 14.415625 -20 15 C-26.09430034 20.625508 -32.23275542 24.08728328 -40 27 C-40 26.34 -40 25.68 -40 25 C-37.96959598 23.32038321 -35.93525487 21.74235497 -33.8125 20.1875 C-29.53481574 17.03527113 -25.73268066 13.80708625 -22 10 C-19.08027753 7.55758868 -16.0428056 5.28615767 -13 3 C-12.44957031 2.54753906 -11.89914062 2.09507812 -11.33203125 1.62890625 C-7.3958854 -1.42081533 -4.70598906 -1.26699706 0 0 Z " fill="#C796A7" transform="translate(327,287)"/>
<path d="M0 0 C2.475 0.495 2.475 0.495 5 1 C2.3905551 6.37238657 -1.75725823 9.37862912 -7 12 C-8.84425989 14.26816301 -8.84425989 14.26816301 -10 17 C-9.71195826 19.2456424 -9.71195826 19.2456424 -8 21 C-4.9665533 22.76727858 -4.9665533 22.76727858 -2 24 C-2 24.66 -2 25.32 -2 26 C-0.02 26.33 1.96 26.66 4 27 C4.33 27.99 4.66 28.98 5 30 C2.10619424 34.17048478 0.01009707 36.56854369 -5 38 C-3.67585611 34.02756832 -2.0120432 31.86511426 1 29 C-1.60238792 27.51762714 -4.20678228 26.03899869 -6.8125 24.5625 C-7.55048828 24.14162109 -8.28847656 23.72074219 -9.04882812 23.28710938 C-10.11713867 22.68286133 -10.11713867 22.68286133 -11.20703125 22.06640625 C-11.8616333 21.69459229 -12.51623535 21.32277832 -13.19067383 20.93969727 C-15.14536412 19.8645343 -15.14536412 19.8645343 -18 19 C-16.57704412 15.5245778 -14.99843009 14.01306738 -11.8671875 11.984375 C-11.06152344 11.45585937 -10.25585938 10.92734375 -9.42578125 10.3828125 C-8.58402344 9.84398437 -7.74226563 9.30515625 -6.875 8.75 C-6.02550781 8.19570313 -5.17601562 7.64140625 -4.30078125 7.0703125 C-2.20582167 5.70505794 -0.10560525 4.34875467 2 3 C1.34 2.01 0.68 1.02 0 0 Z " fill="#3C3977" transform="translate(339,293)"/>
<path d="M0 0 C0.66 0.33 1.32 0.66 2 1 C0 4 0 4 -3 5 C-4.33765062 6.32900202 -5.6702333 7.66310955 -7 9 C-8.97327519 10.43336517 -10.97643341 11.8260563 -13 13.1875 C-17.61233698 16.3261037 -22.15863024 19.53145675 -26.625 22.875 C-27.58664062 23.59429687 -28.54828125 24.31359375 -29.5390625 25.0546875 C-31.94373155 26.87111489 -31.94373155 26.87111489 -33.65625 28.69140625 C-35.74823143 30.72865561 -38.23841598 31.17152479 -41 32 C-42.67163195 32.65411685 -44.34015202 33.31653318 -46 34 C-42.60336649 30.44784298 -39.14497947 27.50950554 -35.125 24.6875 C-34.25705811 24.07539673 -34.25705811 24.07539673 -33.37158203 23.45092773 C-31.25244984 21.9604157 -29.1267643 20.47960274 -27 19 C-26.06478516 18.34870117 -25.12957031 17.69740234 -24.16601562 17.02636719 C-20.05312121 14.16310938 -15.93986853 11.30041729 -11.82080078 8.44604492 C-10.8667334 7.78451416 -9.91266602 7.1229834 -8.9296875 6.44140625 C-8.07616699 5.85045166 -7.22264648 5.25949707 -6.34326172 4.65063477 C-4.19714902 3.13887523 -2.09042218 1.5875746 0 0 Z " fill="#B73A65" transform="translate(316,313)"/>
<path d="M0 0 C4.75085867 3.96372525 9.23613112 8.09794782 13.58984375 12.4921875 C14.17923233 13.08299103 14.76862091 13.67379456 15.37586975 14.28250122 C17.23213727 16.14430404 19.08487085 18.00957745 20.9375 19.875 C22.20614672 21.14867011 23.4750249 22.42210971 24.74414062 23.6953125 C27.83210554 26.79422043 30.91690929 29.89624301 34 33 C33.67 33.99 33.34 34.98 33 36 C31.29115995 34.37660195 29.62553283 32.70680947 28 31 C28 30.34 28 29.68 28 29 C27.39800781 28.89945313 26.79601562 28.79890625 26.17578125 28.6953125 C23.56256862 27.86021044 22.86893076 27.01500278 21.1875 24.875 C16.81051335 19.59176502 11.89931346 14.87570838 6.97924805 10.10498047 C6.33769775 9.47479004 5.69614746 8.84459961 5.03515625 8.1953125 C4.4512915 7.62828613 3.86742676 7.06125977 3.26586914 6.47705078 C2 5 2 5 2 3 C1.01 2.67 0.02 2.34 -1 2 C-0.67 1.34 -0.34 0.68 0 0 Z " fill="#5061B5" transform="translate(293,88)"/>
<path d="M0 0 C0.99 0.33 1.98 0.66 3 1 C-5.3272711 6.96501828 -13.67476948 12.90026982 -22.04858398 18.79980469 C-22.72219971 19.27450195 -23.39581543 19.74919922 -24.08984375 20.23828125 C-25.06606689 20.92398193 -25.06606689 20.92398193 -26.06201172 21.62353516 C-27.37944742 22.55924975 -28.68814438 23.50736498 -29.98876953 24.46630859 C-34.79682557 28 -34.79682557 28 -37 28 C-37 27.34 -37 26.68 -37 26 C-35.68 25.67 -34.36 25.34 -33 25 C-33 24.34 -33 23.68 -33 23 C-32.01 23 -31.02 23 -30 23 C-29.67 22.01 -29.34 21.02 -29 20 C-28.34 20 -27.68 20 -27 20 C-27 19.34 -27 18.68 -27 18 C-25.68 18 -24.36 18 -23 18 C-23 17.34 -23 16.68 -23 16 C-20.8828125 14.2734375 -20.8828125 14.2734375 -18.125 12.375 C-17.22007812 11.74335938 -16.31515625 11.11171875 -15.3828125 10.4609375 C-13 9 -13 9 -11 9 C-11 8.01 -11 7.02 -11 6 C-5.375 3 -5.375 3 -2 3 C-2 2.34 -2 1.68 -2 1 C-1.34 0.67 -0.68 0.34 0 0 Z " fill="#E4E5EC" transform="translate(333,272)"/>
<path d="M0 0 C1.6498275 0.42218816 3.29483665 0.86324425 4.9375 1.3125 C6.31228516 1.67794922 6.31228516 1.67794922 7.71484375 2.05078125 C8.46894531 2.36402344 9.22304688 2.67726562 10 3 C10.33 3.99 10.66 4.98 11 6 C14.3 6.66 17.6 7.32 21 8 C21.33 9.32 21.66 10.64 22 12 C22.9075 11.9175 23.815 11.835 24.75 11.75 C28.75902627 12.05838664 29.36798251 13.11327114 32 16 C33.3303125 16.5259375 33.3303125 16.5259375 34.6875 17.0625 C35.450625 17.371875 36.21375 17.68125 37 18 C37.495 19.485 37.495 19.485 38 21 C33.70154182 19.67955337 29.89175614 18.01803583 25.9375 15.8828125 C24.81085938 15.27566406 23.68421875 14.66851562 22.5234375 14.04296875 C21.94432617 13.72763184 21.36521484 13.41229492 20.76855469 13.08740234 C19.00768336 12.12918109 17.24251473 11.17928727 15.4765625 10.23046875 C10.15601019 7.35103941 4.94363989 4.49130753 0 1 C0 0.67 0 0.34 0 0 Z " fill="#49579C" transform="translate(256,221)"/>
<path d="M0 0 C-2.90201794 1.93467863 -4.0812834 2.30101841 -7.375 2.8125 C-11.90604446 3.73930455 -14.00995664 5.39435948 -17 9 C-18.6875 10.8125 -18.6875 10.8125 -20 12 C-20.66 12 -21.32 12 -22 12 C-22.2475 12.7425 -22.495 13.485 -22.75 14.25 C-24.09147301 17.20124062 -25.60905526 18.84814974 -28 21 C-27.1402259 13.69192012 -22.56184677 9.13999267 -17.14453125 4.6171875 C-11.3162337 0.22207788 -7.22764968 -1.80691242 0 0 Z " fill="#5564B4" transform="translate(109,160)"/>
<path d="M0 0 C4.14298667 0.59834725 7.18194377 2.00664285 10.8125 4.0625 C11.78832031 4.61035156 12.76414063 5.15820312 13.76953125 5.72265625 C14.50558594 6.14417969 15.24164063 6.56570313 16 7 C16 7.99 16 8.98 16 10 C14.03125 11.60546875 14.03125 11.60546875 11.5 13.1875 C10.6646875 13.71730469 9.829375 14.24710937 8.96875 14.79296875 C8.3190625 15.19128906 7.669375 15.58960938 7 16 C7 15.01 7 14.02 7 13 C7.66 12.67 8.32 12.34 9 12 C7.88145414 8.27385847 7.88145414 8.27385847 5 6 C5 5.34 5 4.68 5 4 C4.360625 3.896875 3.72125 3.79375 3.0625 3.6875 C2.381875 3.460625 1.70125 3.23375 1 3 C0.67 2.01 0.34 1.02 0 0 Z " fill="#3F418F" transform="translate(174,299)"/>
<path d="M0 0 C4.06497208 1.25758443 7.67690212 2.76252235 11.3984375 4.8203125 C12.37167969 5.35527344 13.34492188 5.89023437 14.34765625 6.44140625 C15.34667969 6.99699219 16.34570312 7.55257813 17.375 8.125 C18.39722656 8.68832031 19.41945312 9.25164062 20.47265625 9.83203125 C22.98425792 11.2169331 25.49323719 12.60636455 28 14 C27.67 14.66 27.34 15.32 27 16 C25.01559518 15.24275352 23.03756995 14.46877038 21.0625 13.6875 C19.96035156 13.25824219 18.85820312 12.82898438 17.72265625 12.38671875 C15 11 15 11 14 8 C13.154375 7.87625 12.30875 7.7525 11.4375 7.625 C7.84763202 6.97229673 4.49175125 6.04752537 1 5 C0.67 3.35 0.34 1.7 0 0 Z " fill="#C9A1AF" transform="translate(231,302)"/>
<path d="M0 0 C4.14298667 0.59834725 7.18194377 2.00664285 10.8125 4.0625 C11.78832031 4.61035156 12.76414063 5.15820312 13.76953125 5.72265625 C14.50558594 6.14417969 15.24164063 6.56570313 16 7 C16 7.99 16 8.98 16 10 C13 12 13 12 10 12 C10 11.34 10 10.68 10 10 C9.4225 9.773125 8.845 9.54625 8.25 9.3125 C5.40260191 7.65151778 3.87932807 5.68475439 2 3 C2 2.34 2 1.68 2 1 C1.34 0.67 0.68 0.34 0 0 Z " fill="#3A4481" transform="translate(174,272)"/>
<path d="M0 0 C7.78473867 2.10398342 16.63990047 5.94079123 21 13 C19.68 13.33 18.36 13.66 17 14 C16.34 12.68 15.68 11.36 15 10 C14.0925 10.226875 13.185 10.45375 12.25 10.6875 C9 11 9 11 6.625 9.875 C5 8 5 8 4.75 5.3125 C4.8325 4.549375 4.915 3.78625 5 3 C3.68 3 2.36 3 1 3 C0.67 2.01 0.34 1.02 0 0 Z " fill="#453783" transform="translate(175,326)"/>
<path d="M0 0 C3.86427412 1.01691424 7.0102929 2.53342531 10.375 4.625 C15.5378805 7.83117236 20.89637964 10.49969859 26.37841797 13.10791016 C30.33521953 15.02644789 33.65455866 17.08810715 37 20 C32.5147923 19.42884996 29.17435166 17.55545478 25.375 15.25 C21.02270064 12.67461727 16.712606 10.32561643 12.0625 8.3125 C7.54776589 6.34231278 3.84732842 4.07786273 0 1 C0 0.67 0 0.34 0 0 Z " fill="#54337B" transform="translate(192,335)"/>
<path d="M0 0 C0.66 0.33 1.32 0.66 2 1 C0.69791667 2.43229167 -0.60416667 3.86458333 -1.90625 5.296875 C-3.36024492 7.22360515 -3.36024492 7.22360515 -3 11 C-2.195625 11.1546875 -2.195625 11.1546875 -1.375 11.3125 C1.62502044 12.18092697 4.2379535 13.55620296 7 15 C7 15.66 7 16.32 7 17 C3.10391502 15.51095825 -0.59097018 13.75621287 -4.3125 11.875 C-5.38113281 11.33617187 -6.44976562 10.79734375 -7.55078125 10.2421875 C-8.76314453 9.62730469 -8.76314453 9.62730469 -10 9 C-8.60064115 5.59635112 -7.12995268 4.09193812 -4 2.1875 C-3.29875 1.74792969 -2.5975 1.30835938 -1.875 0.85546875 C-1.25625 0.57316406 -0.6375 0.29085938 0 0 Z " fill="#3D3F7C" transform="translate(331,276)"/>
<path d="M0 0 C5.60476823 1.57804154 10.35050626 4.26416385 15.375 7.125 C16.20644531 7.59292969 17.03789062 8.06085938 17.89453125 8.54296875 C19.93234954 9.69070549 21.96735569 10.84313282 24 12 C23.01 12.495 23.01 12.495 22 13 C21.67 13.66 21.34 14.32 21 15 C20.67 14.34 20.34 13.68 20 13 C15.63570439 10.04825542 11.12210037 7.93505683 6.0625 6.5 C2.19426671 5.33413875 2.19426671 5.33413875 0.4375 2.3125 C0.293125 1.549375 0.14875 0.78625 0 0 Z " fill="#C89FAD" transform="translate(207,289)"/>
<path d="M0 0 C0.99 0.33 1.98 0.66 3 1 C2.67 1.66 2.34 2.32 2 3 C0.68 3 -0.64 3 -2 3 C-2.33 3.99 -2.66 4.98 -3 6 C-3.66 6 -4.32 6 -5 6 C-5 6.66 -5 7.32 -5 8 C-7.125 10.6875 -7.125 10.6875 -10 13 C-13.3125 12.8125 -13.3125 12.8125 -16 12 C-12.9296552 8.72249941 -9.6521112 6.20533436 -5.9375 3.6875 C-4.89464844 2.96949219 -3.85179687 2.25148438 -2.77734375 1.51171875 C-1.86082031 1.01285156 -0.94429687 0.51398438 0 0 Z " fill="#E5B9DB" transform="translate(186,284)"/>
<path d="M0 0 C5 1.66666667 10 3.33333333 15 5 C15 5.66 15 6.32 15 7 C15.66 7 16.32 7 17 7 C17 7.66 17 8.32 17 9 C17.5775 8.7525 18.155 8.505 18.75 8.25 C19.86375 8.12625 19.86375 8.12625 21 8 C23.125 9.875 23.125 9.875 25 12 C25.66 12.33 26.32 12.66 27 13 C27 13.66 27 14.32 27 15 C23.40252773 13.63358421 20.07041808 12.0328614 16.69921875 10.1796875 C15.72275391 9.64472656 14.74628906 9.10976562 13.74023438 8.55859375 C12.73283203 8.00300781 11.72542969 7.44742188 10.6875 6.875 C9.66076172 6.31167969 8.63402344 5.74835938 7.57617188 5.16796875 C5.04937949 3.78117107 2.52405506 2.39177165 0 1 C0 0.67 0 0.34 0 0 Z " fill="#47549A" transform="translate(298,244)"/>
<path d="M0 0 C2.31 0.33 4.62 0.66 7 1 C6.443125 1.226875 5.88625 1.45375 5.3125 1.6875 C2.77784543 2.98466965 2.77784543 2.98466965 0.4375 5.625 C-2 8 -2 8 -5 8 C-8.21717569 9.73232537 -11.11872972 11.759012 -14 14 C-11.46586595 7.77985279 -6.85857637 4.79613872 -1 2 C-0.67 1.34 -0.34 0.68 0 0 Z " fill="#CE9CAF" transform="translate(322,287)"/>
<path d="M0 0 C2.97 0.495 2.97 0.495 6 1 C6 1.66 6 2.32 6 3 C8.97 3.495 8.97 3.495 12 4 C12.33 4.99 12.66 5.98 13 7 C10.10619424 11.17048478 8.01009707 13.56854369 3 15 C4.31224548 11.06326356 5.91910327 8.77280706 9 6 C6.03 4.35 3.06 2.7 0 1 C0 0.67 0 0.34 0 0 Z " fill="#4E3C88" transform="translate(331,316)"/>
<path d="M0 0 C0 3 0 3 -2.125 5.25 C-3.07375 6.1575 -4.0225 7.065 -5 8 C-8.92200803 12.20205499 -8.92200803 12.20205499 -12 17 C-12.66 17 -13.32 17 -14 17 C-14.66 18.32 -15.32 19.64 -16 21 C-16.66 21 -17.32 21 -18 21 C-17.43379699 17.22531329 -15.87731019 15.52448107 -13.18359375 12.890625 C-12.41982422 12.13652344 -11.65605469 11.38242188 -10.86914062 10.60546875 C-10.06669922 9.82816406 -9.26425781 9.05085938 -8.4375 8.25 C-7.63119141 7.45722656 -6.82488281 6.66445312 -5.99414062 5.84765625 C-4.00266222 3.89152954 -2.00452279 1.94274281 0 0 Z " fill="#5560B6" transform="translate(204,103)"/>
<path d="M0 0 C0.66 0.33 1.32 0.66 2 1 C-2.01067247 5.88255778 -8.73668871 9.10524124 -15 10 C-17.25 8.0625 -17.25 8.0625 -19 6 C-18.0925 6.226875 -17.185 6.45375 -16.25 6.6875 C-12.28912007 7.06835384 -11.96242122 6.439641 -9 4 C-6.92678345 3.12835296 -4.83265747 2.38195601 -2.70703125 1.6484375 C-0.99486039 1.13150184 -0.99486039 1.13150184 0 0 Z " fill="#4E357E" transform="translate(281,367)"/>
<path d="M0 0 C0.66 0.33 1.32 0.66 2 1 C-0.50632911 4.88481013 -0.50632911 4.88481013 -2.875 5.4375 C-6.14549703 6.3032198 -7.73873525 8.56479181 -10 11 C-11.6875 12.8125 -11.6875 12.8125 -13 14 C-13.66 14 -14.32 14 -15 14 C-14.61328982 11.64915166 -14.32651409 10.32030183 -12.60131836 8.62792969 C-12.02003174 8.22993164 -11.43874512 7.83193359 -10.83984375 7.421875 C-10.21142578 6.98359375 -9.58300781 6.5453125 -8.93554688 6.09375 C-8.27619141 5.6503125 -7.61683594 5.206875 -6.9375 4.75 C-6.27427734 4.29109375 -5.61105469 3.8321875 -4.92773438 3.359375 C-3.29197693 2.22964324 -1.64685766 1.11348827 0 0 Z " fill="#DB5394" transform="translate(187,310)"/>
<path d="M0 0 C0.66 0.33 1.32 0.66 2 1 C1.03578125 1.68707031 0.0715625 2.37414062 -0.921875 3.08203125 C-2.19793477 3.99216212 -3.47397543 4.90231978 -4.75 5.8125 C-5.70132812 6.49022461 -5.70132812 6.49022461 -6.671875 7.18164062 C-7.290625 7.62314453 -7.909375 8.06464844 -8.546875 8.51953125 C-9.14693359 8.9470166 -9.74699219 9.37450195 -10.36523438 9.81494141 C-11.70815663 10.78843971 -13.02252641 11.80120777 -14.328125 12.82421875 C-16 14 -16 14 -18 14 C-17.34 12.68 -16.68 11.36 -16 10 C-15.34 10 -14.68 10 -14 10 C-13.67 9.34 -13.34 8.68 -13 8 C-11.36021682 6.95650161 -9.68535024 5.96817992 -8 5 C-7.32710938 4.55785156 -6.65421875 4.11570312 -5.9609375 3.66015625 C-5.25195312 3.19480469 -4.54296875 2.72945313 -3.8125 2.25 C-2.80123047 1.57710938 -2.80123047 1.57710938 -1.76953125 0.890625 C-1.18558594 0.59671875 -0.60164063 0.3028125 0 0 Z " fill="#E9E4E6" transform="translate(294,300)"/>
<path d="M0 0 C0.99 0.33 1.98 0.66 3 1 C3.6875 3.0625 3.6875 3.0625 4 5 C4.66 5 5.32 5 6 5 C6 5.99 6 6.98 6 8 C7.32 8 8.64 8 10 8 C10.28875 8.639375 10.5775 9.27875 10.875 9.9375 C11.82823451 12.15206079 11.82823451 12.15206079 14 13 C13.67 13.99 13.34 14.98 13 16 C7.48721766 11.62260459 3.20866735 7.32477698 0 1 C0 0.67 0 0.34 0 0 Z " fill="#364591" transform="translate(81,404)"/>
<path d="M0 0 C0.99 0.33 1.98 0.66 3 1 C0.04722495 3.17432426 -2.91309956 5.33812729 -5.875 7.5 C-6.71675781 8.12003906 -7.55851562 8.74007813 -8.42578125 9.37890625 C-9.23144531 9.96542969 -10.03710938 10.55195313 -10.8671875 11.15625 C-11.61081543 11.70087891 -12.35444336 12.24550781 -13.12060547 12.80664062 C-15 14 -15 14 -17 14 C-17 13.34 -17 12.68 -17 12 C-15.68 11.67 -14.36 11.34 -13 11 C-13 10.34 -13 9.68 -13 9 C-12.01 9 -11.02 9 -10 9 C-9.67 8.01 -9.34 7.02 -9 6 C-8.34 6 -7.68 6 -7 6 C-7 5.34 -7 4.68 -7 4 C-5.68 4 -4.36 4 -3 4 C-3 3.34 -3 2.68 -3 2 C-2.01 1.34 -1.02 0.68 0 0 Z " fill="#E4DADE" transform="translate(313,286)"/>
<path d="M0 0 C2.125 0.375 2.125 0.375 4 1 C2.625 2.5 2.625 2.5 1 4 C0.34 4 -0.32 4 -1 4 C-1.2475 4.7425 -1.495 5.485 -1.75 6.25 C-3.09147301 9.20124062 -4.60905526 10.84814974 -7 13 C-6.36664937 7.61651963 -3.79089107 3.79089107 0 0 Z " fill="#4B5AB0" transform="translate(88,168)"/>
<path d="M0 0 C1.0828125 0.37125 1.0828125 0.37125 2.1875 0.75 C-1.63430842 5.1508703 -4.28621099 6.55805531 -9.8125 7.75 C-8.03380954 3.22242429 -5.15359574 -0.4580974 0 0 Z " fill="#C598A7" transform="translate(275.8125,316.25)"/>
<path d="M0 0 C0.66 0 1.32 0 2 0 C2 0.66 2 1.32 2 2 C3.3921875 2.4021875 3.3921875 2.4021875 4.8125 2.8125 C7.76240366 3.91148371 9.05615186 4.62418561 11 7 C7 7 7 7 4.5625 6 C1.84160657 4.93818793 -0.10886734 4.83479242 -3 5 C-2.505 4.360625 -2.01 3.72125 -1.5 3.0625 C0.09802862 1.29025661 0.09802862 1.29025661 0 0 Z " fill="#C3A0B3" transform="translate(190,279)"/>
<path d="M0 0 C-0.99 0.33 -1.98 0.66 -3 1 C-3.33 1.99 -3.66 2.98 -4 4 C-6.06640625 5.38671875 -6.06640625 5.38671875 -8.5625 6.6875 C-9.80193359 7.34298828 -9.80193359 7.34298828 -11.06640625 8.01171875 C-11.70449219 8.33785156 -12.34257812 8.66398437 -13 9 C-10.4901978 3.43323494 -6.49856934 -0.95567196 0 0 Z " fill="#C093A4" transform="translate(325,286)"/>
<path d="M0 0 C0.98464547 2.6078186 1.1236295 3.68962214 0.07421875 6.32421875 C-0.38339844 7.10410156 -0.84101563 7.88398438 -1.3125 8.6875 C-1.98732422 9.86892578 -1.98732422 9.86892578 -2.67578125 11.07421875 C-4 13 -4 13 -6 14 C-5.11223998 10.30099992 -4.05418136 6.65449539 -3 3 C-2.01 3 -1.02 3 0 3 C0 2.01 0 1.02 0 0 Z " fill="#384797" transform="translate(433,397)"/>
<path d="M0 0 C-2.00993705 2.00993705 -3.59211232 2.89940919 -6.125 4.125 C-6.84945313 4.47820312 -7.57390625 4.83140625 -8.3203125 5.1953125 C-8.87460937 5.46085937 -9.42890625 5.72640625 -10 6 C-10.33 5.34 -10.66 4.68 -11 4 C-7.26280719 0.48264206 -5.13496308 -0.47767098 0 0 Z " fill="#CE9BAC" transform="translate(298,308)"/>
<path d="M0 0 C3.37503669 1.1858237 5.64722731 2.27573689 8 5 C4.25 8 4.25 8 2 8 C2.33 6.02 2.66 4.04 3 2 C2.01 2 1.02 2 0 2 C0 1.34 0 0.68 0 0 Z " fill="#473B7D" transform="translate(183,303)"/>
<path d="M0 0 C1.32 0.33 2.64 0.66 4 1 C4 1.66 4 2.32 4 3 C5.2065625 3.3403125 5.2065625 3.3403125 6.4375 3.6875 C7.283125 4.120625 8.12875 4.55375 9 5 C9.8125 7.625 9.8125 7.625 10 10 C6.20620942 8.50958227 4.31656242 6.30937488 2 3 C2 2.34 2 1.68 2 1 C1.34 0.67 0.68 0.34 0 0 Z " fill="#33428F" transform="translate(174,272)"/>
<path d="M0 0 C0.66 0.33 1.32 0.66 2 1 C-1.42388092 4.82669043 -4.00724943 6.72278474 -9 8 C-9 7.34 -9 6.68 -9 6 C-7.03125 4.4921875 -7.03125 4.4921875 -4.5 2.875 C-3.6646875 2.33617187 -2.829375 1.79734375 -1.96875 1.2421875 C-1.3190625 0.83226562 -0.669375 0.42234375 0 0 Z " fill="#513375" transform="translate(333,328)"/>
<path d="M0 0 C0.99 0.33 1.98 0.66 3 1 C-2.96269908 5.81139983 -2.96269908 5.81139983 -6.75 6.5 C-9.37562623 5.9165275 -10.3495451 5.08478513 -12 3 C-11.13375 3.2475 -10.2675 3.495 -9.375 3.75 C-4.99945417 4.07411451 -3.49038409 2.48205091 0 0 Z " fill="#EAE1E4" transform="translate(273,314)"/>
<path d="M0 0 C1.65 0 3.3 0 5 0 C5 0.66 5 1.32 5 2 C5.763125 2.103125 6.52625 2.20625 7.3125 2.3125 C10.17059424 3.04364039 11.15742885 3.76951913 13 6 C12.67 6.66 12.34 7.32 12 8 C10.37284844 7.04532436 8.74834654 6.08613152 7.125 5.125 C6.22007812 4.59132812 5.31515625 4.05765625 4.3828125 3.5078125 C2 2 2 2 0 0 Z " fill="#030521" transform="translate(411,159)"/>
<path d="M0 0 C0.33 0.99 0.66 1.98 1 3 C-2.465 4.485 -2.465 4.485 -6 6 C-5.67 4.68 -5.34 3.36 -5 2 C-5.66 1.67 -6.32 1.34 -7 1 C-4.53721199 -0.231394 -2.7204945 -0.07159196 0 0 Z " fill="#030316" transform="translate(101,157)"/>
<path d="M0 0 C0.99 0.33 1.98 0.66 3 1 C1.73608512 2.00873016 0.46359117 3.00671822 -0.8125 4 C-1.87404297 4.8353125 -1.87404297 4.8353125 -2.95703125 5.6875 C-5 7 -5 7 -8 7 C-5.42215154 4.35247996 -3.08351902 2.05567935 0 0 Z " fill="#C93467" transform="translate(276,343)"/>
<path d="M0 0 C1.65 0.33 3.3 0.66 5 1 C2.92856799 5.03384128 1.03384128 6.92856799 -3 9 C-3 8.01 -3 7.02 -3 6 C-0.5 4.3125 -0.5 4.3125 2 3 C1.34 2.01 0.68 1.02 0 0 Z " fill="#41458B" transform="translate(339,293)"/>
<path d="M0 0 C0.99 0.33 1.98 0.66 3 1 C2.67 1.66 2.34 2.32 2 3 C0.68 3 -0.64 3 -2 3 C-2.33 3.99 -2.66 4.98 -3 6 C-3.99 5.67 -4.98 5.34 -6 5 C-2.25 1.125 -2.25 1.125 0 0 Z " fill="#DCB2D1" transform="translate(186,284)"/>
<path d="M0 0 C0 0.66 0 1.32 0 2 C-0.721875 2.268125 -1.44375 2.53625 -2.1875 2.8125 C-4.97590126 3.98982498 -7.44095724 5.39145884 -10 7 C-8.2054392 2.26888516 -5.07937287 0 0 0 Z " fill="#394689" transform="translate(344,269)"/>
<path d="M0 0 C2.97 0.99 5.94 1.98 9 3 C8.67 3.66 8.34 4.32 8 5 C6.02 5 4.04 5 2 5 C1.34 3.35 0.68 1.7 0 0 Z " fill="#373F8B" transform="translate(253,369)"/>
<path d="M0 0 C0.66 0.33 1.32 0.66 2 1 C-0.77280706 4.08089673 -3.06326356 5.68775452 -7 7 C-7 6.01 -7 5.02 -7 4 C-1.7265625 0.77734375 -1.7265625 0.77734375 0 0 Z " fill="#303982" transform="translate(281,367)"/>
<path d="M0 0 C1.32 0 2.64 0 4 0 C4 0.66 4 1.32 4 2 C4.78375 2.144375 5.5675 2.28875 6.375 2.4375 C9 3 9 3 11 4 C11 4.66 11 5.32 11 6 C6.49197399 4.74194623 3.5087188 3.09592835 0 0 Z " fill="#CE4588" transform="translate(224,351)"/>
<path d="M0 0 C0.625 1.875 0.625 1.875 1 4 C-1 6 -1 6 -3 7 C-3.66 6.67 -4.32 6.34 -5 6 C-3.63016497 2.83884224 -3.0109362 2.0072908 0 0 Z " fill="#3F4170" transform="translate(326,279)"/>
<path d="M0 0 C-2.64 1.98 -5.28 3.96 -8 6 C-8.66 5.67 -9.32 5.34 -10 5 C-8.68 4.34 -7.36 3.68 -6 3 C-6 2.01 -6 1.02 -6 0 C-2.25 -1.125 -2.25 -1.125 0 0 Z " fill="#C5437E" transform="translate(303,350)"/>
<path d="M0 0 C0.33 0.66 0.66 1.32 1 2 C1.66 2.33 2.32 2.66 3 3 C-3.625 6.125 -3.625 6.125 -7 5 C-4.69 3.35 -2.38 1.7 0 0 Z " fill="#B295A2" transform="translate(320,283)"/>
<path d="M0 0 C0.99 0.33 1.98 0.66 3 1 C-1.455 3.97 -1.455 3.97 -6 7 C-5.67 5.68 -5.34 4.36 -5 3 C-4.01 3 -3.02 3 -2 3 C-2 2.34 -2 1.68 -2 1 C-1.34 0.67 -0.68 0.34 0 0 Z " fill="#D4D7E8" transform="translate(333,272)"/>
<path d="M0 0 C4.95 0.99 4.95 0.99 10 2 C10 2.66 10 3.32 10 4 C3.375 3.375 3.375 3.375 0 0 Z " fill="#3D4B9A" transform="translate(267,227)"/>
<path d="M0 0 C3.41158256 1.13719419 4.11854601 2.04342944 6 5 C6 5.66 6 6.32 6 7 C4 6 2 5 0 4 C0 2.68 0 1.36 0 0 Z " fill="#354194" transform="translate(180,330)"/>
<path d="M0 0 C0.66 0.33 1.32 0.66 2 1 C0.71283353 2.00578589 -0.57988658 3.00446798 -1.875 4 C-2.95394531 4.8353125 -2.95394531 4.8353125 -4.0546875 5.6875 C-6 7 -6 7 -8 7 C-8 6.34 -8 5.68 -8 5 C-6.3203125 3.67578125 -6.3203125 3.67578125 -4.125 2.3125 C-3.40570313 1.85488281 -2.68640625 1.39726562 -1.9453125 0.92578125 C-1.30335938 0.62027344 -0.66140625 0.31476563 0 0 Z " fill="#E5DADE" transform="translate(294,300)"/>
<path d="M0 0 C2.50037734 2.17424117 3.43628586 3.73045798 4 7 C3.01 7 2.02 7 1 7 C0.01 5.02 -0.98 3.04 -2 1 C-1.34 0.67 -0.68 0.34 0 0 Z " fill="#4858A9" transform="translate(427,171)"/>
<path d="M0 0 C2.04119788 1.61594832 4.04072937 3.2856382 6 5 C6 5.66 6 6.32 6 7 C3.5625 6.3125 3.5625 6.3125 1 5 C0.1875 2.375 0.1875 2.375 0 0 Z " fill="#5060B1" transform="translate(421,165)"/>
<path d="M0 0 C0.99 0.33 1.98 0.66 3 1 C1.02 1.99 1.02 1.99 -1 3 C-1 3.66 -1 4.32 -1 5 C-1.99 5 -2.98 5 -4 5 C-2.25 1.125 -2.25 1.125 0 0 Z " fill="#413769" transform="translate(325,307)"/>
<path d="M0 0 C2.475 0.495 2.475 0.495 5 1 C5.33 2.65 5.66 4.3 6 6 C3.97945196 4.35830472 1.97956942 2.69088222 0 1 C0 0.67 0 0.34 0 0 Z " fill="#080D30" transform="translate(294,88)"/>
</svg>
